<mxfile host="app.diagrams.net" modified="2024-05-22T14:23:45.353Z" agent="Mozilla/5.0 (Windows NT 10.0; Win64; x64) AppleWebKit/537.36 (KHTML, like Gecko) Chrome/92.0.4515.131 Safari/537.36 Edg/92.0.902.67" etag="vp2QCsBKNrhBoy0GE-eI" version="24.4.6" type="device">
  <diagram name="Page-1" id="sI0h70EKzh-OjwFBgJtZ">
    <mxGraphModel dx="1050" dy="580" grid="1" gridSize="10" guides="1" tooltips="1" connect="1" arrows="1" fold="1" page="1" pageScale="1" pageWidth="850" pageHeight="1100" math="0" shadow="0">
      <root>
        <mxCell id="0" />
        <mxCell id="1" parent="0" />
        <mxCell id="WEnpVHOdgYNaH_hOp4FP-2" value="" style="whiteSpace=wrap;html=1;aspect=fixed;align=left;" vertex="1" parent="1">
          <mxGeometry x="180" y="80" width="410" height="410" as="geometry" />
        </mxCell>
        <mxCell id="WEnpVHOdgYNaH_hOp4FP-10" style="rounded=0;orthogonalLoop=1;jettySize=auto;html=1;" edge="1" parent="1" source="WEnpVHOdgYNaH_hOp4FP-1" target="WEnpVHOdgYNaH_hOp4FP-3">
          <mxGeometry relative="1" as="geometry" />
        </mxCell>
        <mxCell id="WEnpVHOdgYNaH_hOp4FP-11" style="rounded=0;orthogonalLoop=1;jettySize=auto;html=1;" edge="1" parent="1" source="WEnpVHOdgYNaH_hOp4FP-1" target="WEnpVHOdgYNaH_hOp4FP-8">
          <mxGeometry relative="1" as="geometry" />
        </mxCell>
        <mxCell id="WEnpVHOdgYNaH_hOp4FP-12" style="rounded=0;orthogonalLoop=1;jettySize=auto;html=1;" edge="1" parent="1" source="WEnpVHOdgYNaH_hOp4FP-1" target="WEnpVHOdgYNaH_hOp4FP-5">
          <mxGeometry relative="1" as="geometry" />
        </mxCell>
        <mxCell id="WEnpVHOdgYNaH_hOp4FP-13" style="rounded=0;orthogonalLoop=1;jettySize=auto;html=1;" edge="1" parent="1" source="WEnpVHOdgYNaH_hOp4FP-1" target="WEnpVHOdgYNaH_hOp4FP-9">
          <mxGeometry relative="1" as="geometry" />
        </mxCell>
        <mxCell id="WEnpVHOdgYNaH_hOp4FP-1" value="Usuario" style="shape=umlActor;verticalLabelPosition=bottom;verticalAlign=top;html=1;outlineConnect=0;" vertex="1" parent="1">
          <mxGeometry x="90" y="220" width="30" height="60" as="geometry" />
        </mxCell>
        <mxCell id="WEnpVHOdgYNaH_hOp4FP-3" value="Ver pagina principal" style="ellipse;whiteSpace=wrap;html=1;" vertex="1" parent="1">
          <mxGeometry x="290" y="130" width="210" height="50" as="geometry" />
        </mxCell>
        <mxCell id="WEnpVHOdgYNaH_hOp4FP-5" value="Ver detalles noticia" style="ellipse;whiteSpace=wrap;html=1;" vertex="1" parent="1">
          <mxGeometry x="300" y="280" width="210" height="50" as="geometry" />
        </mxCell>
        <mxCell id="WEnpVHOdgYNaH_hOp4FP-8" value="Iniciar Sesion" style="ellipse;whiteSpace=wrap;html=1;" vertex="1" parent="1">
          <mxGeometry x="300" y="210" width="210" height="50" as="geometry" />
        </mxCell>
        <mxCell id="WEnpVHOdgYNaH_hOp4FP-9" value="Cerrar Sesion" style="ellipse;whiteSpace=wrap;html=1;" vertex="1" parent="1">
          <mxGeometry x="290" y="370" width="210" height="50" as="geometry" />
        </mxCell>
        <mxCell id="WEnpVHOdgYNaH_hOp4FP-16" value="App web noticias" style="text;html=1;align=center;verticalAlign=middle;whiteSpace=wrap;rounded=0;" vertex="1" parent="1">
          <mxGeometry x="180" y="80" width="110" height="30" as="geometry" />
        </mxCell>
      </root>
    </mxGraphModel>
  </diagram>
</mxfile>
